<?xml version="1.0" encoding="UTF-8" standalone="no"?>
<svg width="139px" height="149px" viewBox="0 0 139 149" version="1.1" xmlns="http://www.w3.org/2000/svg" xmlns:xlink="http://www.w3.org/1999/xlink" xmlns:sketch="http://www.bohemiancoding.com/sketch/ns">
    <title>Drupal Packagist</title>
    <desc>Combined icon of
       Drop: Created by Chris Evans from the Noun project - This icon is licensed as Creative Commons – Attribution (CC BY 3.0) - http://thenounproject.com/term/drop/31491/
       Package: Created by Peter Costello from the Noun project - This icon is licensed as Public Domain - http://thenounproject.com/term/box/9152/
    </desc>
    <g id="Page-1" stroke="none" stroke-width="1" fill="none" fill-rule="evenodd" sketch:type="MSPage">
        <g id="Drupal-Packagist" sketch:type="MSLayerGroup">
            <g id="Package" transform="translate(0.000000, 31.000000)" sketch:type="MSShapeGroup">
                <path d="M137.778203,43.4698305 L126.882304,27.8325523 C126.839494,27.770516 126.77735,27.7222655 126.729016,27.664365 C126.657205,27.5775142 126.589538,27.4906634 126.50806,27.4120841 C126.476298,27.3831339 126.450059,27.3500479 126.418297,27.3224762 C126.350629,27.2645757 126.273294,27.2245967 126.201483,27.1735891 C126.135197,27.1280958 126.082719,27.0688167 126.01229,27.0274592 C125.975003,27.0054019 125.932193,26.9985089 125.894907,26.9778302 C125.88524,26.9736944 125.878335,26.9654229 125.868668,26.9612872 C125.839668,26.9461227 125.818953,26.9226868 125.788572,26.908901 L70.0910566,0.802655819 C69.9847215,0.753026795 69.8742435,0.717183611 69.7651464,0.682719011 C69.7389078,0.674447507 69.7140503,0.662040251 69.6878117,0.653768747 C69.6256678,0.635847155 69.5607619,0.624818483 69.498618,0.612411227 C69.4489029,0.601382555 69.4005688,0.591732467 69.3508536,0.583460963 C69.2597092,0.569675123 69.1699458,0.557267867 69.0788014,0.553132115 C69.0332292,0.550374947 68.987657,0.551753531 68.9407038,0.550374947 C68.875798,0.550374947 68.8095111,0.543482027 68.7432243,0.547617779 C68.7390814,0.547617779 68.7335575,0.548996363 68.7294145,0.548996363 C68.6023648,0.557267867 68.4794579,0.577946627 68.3565511,0.602761139 C68.3413603,0.605518307 68.3275506,0.605518307 68.3123598,0.609654059 C68.2543589,0.622061315 68.2005008,0.644118659 68.1438808,0.660661667 C68.0955467,0.674447507 68.0499745,0.688233347 68.0030213,0.704776355 C67.906353,0.737862371 67.8138276,0.777841307 67.7226832,0.820577411 C67.7005876,0.831606083 67.67573,0.834363251 67.6522534,0.845391923 L14.7139281,28.0062538 C14.7084042,28.009011 14.7028802,28.0131468 14.6973563,28.0172825 C14.6628319,28.0352041 14.6296885,28.05864 14.5937832,28.0793188 C14.5744495,28.0862117 14.5551158,28.0931046 14.5371632,28.1041333 C14.5040197,28.1248121 14.4764002,28.1523837 14.4460188,28.1771983 C14.3134451,28.2654276 14.1891573,28.3660643 14.0717743,28.4777296 C14.0634885,28.4860011 14.0524407,28.4915154 14.0441548,28.4997869 C14.0358689,28.5080584 14.030345,28.5190871 14.0220592,28.5273586 C13.8729138,28.6776242 13.7389592,28.8444329 13.6243382,29.0319203 C13.6160523,29.0443276 13.6050045,29.0553563 13.5980996,29.0677635 C13.5967187,29.0705207 13.5953377,29.0746564 13.5939567,29.0787922 C13.577385,29.1077425 13.5552894,29.1311784 13.5387177,29.1601286 L1.0864591,52.4251122 C0.368351699,53.7664744 0.873788832,55.4345611 2.21609729,56.1541819 L13.5262889,62.2144372 L13.5262889,81.7586225 L13.5262889,84.8108075 C13.5262889,85.8254453 13.9295338,86.7601252 14.8257871,87.2398725 L70.4445864,117.090352 C70.584065,117.164795 70.6931621,117.20891 70.8395455,117.25716 C70.9072133,117.280596 70.9500236,117.317818 71.0204533,117.33574 C71.2414095,117.390883 71.4568417,117.419833 71.6819407,117.419833 C71.9360403,117.419833 72.181854,117.382612 72.4276677,117.313682 C72.5077643,117.290246 72.5754321,117.244753 72.6541477,117.215803 C72.8019121,117.16066 72.9524385,117.113788 73.090536,117.029694 C73.1057268,117.021423 73.1140126,117.007637 73.1264414,117.000744 C73.1388702,116.992472 73.1526799,116.991094 73.1637277,116.982822 L126.106196,83.0269198 C126.121387,83.0172697 126.132435,83.0021053 126.146244,82.9938337 C126.320247,82.8780327 126.48044,82.7456886 126.624062,82.595423 C126.646158,82.5706085 126.661348,82.5430368 126.683444,82.5182223 C126.799446,82.3872568 126.900257,82.2466412 126.990021,82.0936184 C127.020402,82.0412322 127.048022,81.9860888 127.075641,81.9323241 C127.14469,81.7944657 127.199929,81.6524715 127.24412,81.5022059 C127.262073,81.4456839 126.977592,81.3932977 126.990021,81.3353972 C127.038355,81.1313668 126.766302,80.9232006 126.766302,80.7067629 L126.766302,44.1246579 L133.987425,47.5187317 C134.375479,47.7089763 134.944441,47.8013415 135.357353,47.8013415 C136.143128,47.8013415 136.991047,47.4663455 137.528247,46.841847 C138.349927,45.8878669 138.496311,44.5010114 137.778203,43.4698305 L137.778203,43.4698305 Z" fill="#000000"></path>
                <path d="M121.242399,79.2013492 L74.289223,109.614291 L74.289223,60.7035091 L121.242399,34.1175167 L121.242399,79.2013492 L121.242399,79.2013492 Z" id="Path" fill="#FFFFFF"></path>
                <path d="M19.050192,83.1606424 L19.050192,65.1756356 L57.9122313,86.0060398 C58.3182382,86.2238561 58.7670553,86.3341428 59.2186344,86.3341428 C59.4962105,86.3341428 59.7751676,86.2927853 60.0458389,86.207313 C60.7556604,85.985361 61.3453371,85.4876922 61.6822952,84.8245933 L68.7653199,70.8967592 L68.7653199,110.05268 L19.050192,83.1606424 L19.050192,83.1606424 Z" id="Path" fill="#FFFFFF"></path>
                <path d="M17.1306357,34.1533599 L67.9671159,60.2871767 L58.0351381,79.8134405 L7.25942082,52.5960566 L17.1306357,34.1533599 L17.1306357,34.1533599 Z" id="Path" fill="#FFFFFF"></path>
            </g>
            <g id="Drop" transform="translate(43.000000, 0.000000)" sketch:type="MSShapeGroup">
                <path d="M26.106,82.153 C19.598,82.153 13.731,79.739 8.667,74.979 C4.48,71.043 1.9,66.124 0.998,60.355 C0.182,55.139 0.904,50.091 3.144,45.351 C4.978,41.47 7.018,37.706 8.771,34.538 C10.073,32.182 11.439,29.827 12.76,27.549 C13.907,25.57 15.094,23.524 16.224,21.502 C17.63,18.988 19.129,14.294 20.333,10.522 C22.644,3.286 23.422,0.848 26.21,0.848 C27.099,0.848 27.951,1.244 28.548,1.933 L28.868,2.303 L29.045,2.759 C29.267,3.333 29.524,4.008 29.811,4.762 C31.737,9.814 35.323,19.218 38.354,24.468 L39.684,26.768 C41.863,30.534 44.115,34.427 46.253,38.317 C47.694,40.937 49.191,43.772 50.366,46.743 C53.153,53.786 52.968,60.693 49.815,67.272 C45.933,75.375 39.246,80.398 30.479,81.798 C29.005,82.034 27.533,82.153 26.106,82.153 L26.106,82.153 Z" id="Path" fill="#FFFFFF"></path>
                <path d="M26.13,10.837 C25.975,11.317 25.825,11.788 25.684,12.231 C24.336,16.452 22.809,21.237 21.126,24.244 C19.975,26.303 18.777,28.369 17.618,30.367 C16.311,32.62 14.96,34.951 13.685,37.257 C11.974,40.35 9.987,44.015 8.221,47.753 C6.471,51.456 5.907,55.405 6.546,59.488 C7.251,63.993 9.258,67.829 12.513,70.887 C17.398,75.479 23.145,77.283 29.596,76.252 C36.559,75.14 41.659,71.302 44.753,64.845 C47.203,59.734 47.335,54.338 45.147,48.809 C44.086,46.128 42.688,43.482 41.335,41.023 C39.226,37.187 36.989,33.321 34.825,29.581 L33.492,27.276 C30.943,22.861 28.213,16.193 26.13,10.837 L26.13,10.837 Z" id="Path" fill="#3498DB"></path>
                <path d="M29.403,69.008 C28.982,71.605 34.516,72.196 37.831,69.473 C41.618,66.361 43.768,60.528 41.662,59.667 C39.287,58.697 39.335,63.399 36.109,65.691 C33.17,67.781 29.767,66.762 29.403,69.008 L29.403,69.008 Z" id="Shape" fill="#FFFFFF"></path>
            </g>
        </g>
    </g>
</svg>
